<svg width="1440" height="1027" viewBox="0 0 1440 1027" fill="none" xmlns="http://www.w3.org/2000/svg">
<g clip-path="url(#clip0_288_87308)">
<path d="M1444.5 412.001C1143.5 434.501 1038.7 475.001 972.5 412.001C776 225.002 639.5 134 3.5 227.5" stroke="#37ABFF" stroke-width="44"/>
<path d="M1442 411.999C1189.5 446 1032.5 344.499 906.5 497.999C735.568 706.236 253.5 801.499 -21.5 524.499" stroke="#37ABFF" stroke-width="44"/>
<path d="M1443 413.5C1272.5 432 1080 638.5 776.5 681.5C540.542 714.931 373 579 -24 579" stroke="#37ABFF" stroke-width="44"/>
<path d="M1460.5 408.5C1387.83 428.166 1178.6 427.3 923 266.5C667.4 105.7 186.833 224.166 -21.5 303.5" stroke="#37ABFF" stroke-width="44"/>
<path d="M-19.5 633.001C50.5 710.668 256.9 840.801 522.5 740.001C854.5 614.001 1235.5 425.5 1438 414.002" stroke="#37ABFF" stroke-width="44"/>
</g>
<defs>
<clipPath id="clip0_288_87308">
<rect width="1440" height="1027" fill="white"/>
</clipPath>
</defs>
</svg>
