<svg width="1440" height="456" viewBox="0 0 1440 456" fill="none" xmlns="http://www.w3.org/2000/svg">
<g clip-path="url(#clip0_265_116556)">
<path d="M1442 201.887C1226 314.387 1004.6 317.986 741 210.386C477.4 102.786 115.833 86.5526 -32 91.8859" stroke="#37ABFF" stroke-width="4"/>
<path d="M1475 186.386C1372.5 236.053 1129.5 332.986 977.5 323.386C787.5 311.386 808 150.386 535.5 102.386C317.5 63.9864 24 137.72 -95.5 179.386" stroke="#37ABFF" stroke-width="4"/>
<path d="M1440 202.387C1075 364.387 1220.2 214.886 1005 246.886C736 286.886 126 303.386 -14.5 235.386" stroke="#37ABFF" stroke-width="4"/>
<path d="M1440 201.887C1225 308.887 1012.7 270.686 811.5 197.886C610.3 125.086 170 167.553 -25 197.886" stroke="#37ABFF" stroke-width="4"/>
</g>
<defs>
<clipPath id="clip0_265_116556">
<rect width="1440" height="456" fill="white"/>
</clipPath>
</defs>
</svg>
