<svg width="1440" height="1027" viewBox="0 0 1440 1027" fill="none" xmlns="http://www.w3.org/2000/svg">
<g clip-path="url(#clip0_265_117048)">
<path d="M1468.5 471.446C1167.5 493.946 1062.7 534.446 996.5 471.446C800 284.447 663.5 193.445 27.5 286.945" stroke="#37ABFF" stroke-width="10" stroke-linejoin="round" stroke-dasharray="1 40"/>
<path d="M1466 471.444C1213.5 505.445 1056.5 403.944 930.5 557.444C759.568 765.682 277.5 860.945 2.5 583.945" stroke="#37ABFF" stroke-width="10" stroke-linejoin="round" stroke-dasharray="1 40"/>
<path d="M1467 472.945C1296.5 491.445 1104 697.945 800.5 740.945C564.542 774.376 397 638.446 0 638.446" stroke="#37ABFF" stroke-width="10" stroke-linejoin="round" stroke-dasharray="1 40"/>
<path d="M1484.5 467.945C1411.83 487.612 1202.6 486.745 947 325.945C691.4 165.145 210.833 283.612 2.5 362.945" stroke="#37ABFF" stroke-width="10" stroke-linejoin="round" stroke-dasharray="1 40"/>
<path d="M4.5 692.446C74.5 770.113 280.9 900.246 546.5 799.446C878.5 673.446 1259.5 484.945 1462 473.447" stroke="#37ABFF" stroke-width="10" stroke-linejoin="round" stroke-dasharray="1 40"/>
</g>
<defs>
<clipPath id="clip0_265_117048">
<rect width="1440" height="1027" fill="white"/>
</clipPath>
</defs>
</svg>
