<svg width="1440" height="456" viewBox="0 0 1440 456" fill="none" xmlns="http://www.w3.org/2000/svg">
<g clip-path="url(#clip0_265_110797)">
<path d="M1492.5 311.386C1351.83 337.886 1004.6 363.986 741 256.386C477.4 148.786 115.833 132.553 -32 137.886" stroke="#37ABFF" stroke-width="4"/>
<path d="M1475 232.386C1372.5 282.053 1129.5 378.986 977.5 369.386C787.5 357.386 808 196.386 535.5 148.386C317.5 109.986 24 183.72 -95.5 225.386" stroke="#37ABFF" stroke-width="4"/>
<path d="M1529.5 262.387C1444.33 259.22 1220.2 260.887 1005 292.887C736 332.887 126 349.387 -14.5 281.387" stroke="#37ABFF" stroke-width="4"/>
<path d="M1460 293.386C1327.67 307.219 1012.7 316.686 811.5 243.886C610.3 171.086 170 213.553 -25 243.886" stroke="#37ABFF" stroke-width="4"/>
</g>
<defs>
<clipPath id="clip0_265_110797">
<rect width="1440" height="456" fill="white"/>
</clipPath>
</defs>
</svg>
