<svg width="1440" height="1027" viewBox="0 0 1440 1027" fill="none" xmlns="http://www.w3.org/2000/svg">
<g clip-path="url(#clip0_265_110829)">
<path d="M1480 483.499C1426.5 503.665 1238.62 571.454 1090.5 430.499C894 243.5 610 149.999 -26 243.499" stroke="#37ABFF" stroke-width="2"/>
<path d="M1456 308.001C1379.5 294.668 1188.4 306.101 1036 458.501C845.5 649.001 253.5 801.5 -21.5 524.5" stroke="#37ABFF" stroke-width="2"/>
<path d="M1500 548.501C1462.17 539.834 1330.1 541.701 1104.5 618.501C878.9 695.301 258.167 624.167 -24 579" stroke="#37ABFF" stroke-width="2"/>
<path d="M1460.5 408.5C1387.83 428.166 1178.6 427.3 923 266.5C667.4 105.7 186.833 224.166 -21.5 303.5" stroke="#37ABFF" stroke-width="2"/>
<path d="M-19.5 633C50.5 710.667 256.9 840.8 522.5 740C854.5 614 1035 532 1442.5 706.5" stroke="#37ABFF" stroke-width="2"/>
</g>
<defs>
<clipPath id="clip0_265_110829">
<rect width="1440" height="1027" fill="white"/>
</clipPath>
</defs>
</svg>
